<?xml version="1.0" standalone="no"?>
<!-- Generator: Adobe Fireworks 10, Export SVG Extension by Aaron Beall (http://fireworks.abeall.com) . Version: 0.6.1  -->
<!DOCTYPE svg PUBLIC "-//W3C//DTD SVG 1.1//EN" "http://www.w3.org/Graphics/SVG/1.1/DTD/svg11.dtd">
<svg id="Untitled-P%E1gina%201" viewBox="0 0 16 16" style="background-color:#ffffff00" version="1.1"
	xmlns="http://www.w3.org/2000/svg" xmlns:xlink="http://www.w3.org/1999/xlink" xml:space="preserve"
	x="0px" y="0px" width="16px" height="16px"
>
	<g id="Capa%201">
		<path d="M 15.6084 13.7177 L 12.1323 10.2417 C 12.114 10.2233 12.0923 10.2103 12.073 10.1931 C 12.7571 9.1556 13.1563 7.9137 13.1563 6.5782 C 13.1563 2.9451 10.2109 0 6.5781 0 C 2.9451 0 0 2.9451 0 6.5781 C 0 10.2111 2.9451 13.1562 6.5781 13.1562 C 7.9136 13.1562 9.1555 12.757 10.1929 12.0731 C 10.2102 12.0923 10.2231 12.114 10.2415 12.1324 L 13.7175 15.6085 C 14.2397 16.1305 15.0862 16.1305 15.6084 15.6085 C 16.1304 15.0862 16.1304 14.2397 15.6084 13.7177 ZM 6.5781 10.8757 C 4.2046 10.8757 2.2803 8.9517 2.2803 6.5781 C 2.2803 4.2045 4.2046 2.2804 6.5781 2.2804 C 8.9517 2.2804 10.8757 4.2046 10.8757 6.5781 C 10.8757 8.9517 8.9517 10.8757 6.5781 10.8757 Z" fill="#1f3c73"/>
	</g>
</svg>