<?xml version="1.0" standalone="no"?>
<!-- Generator: Adobe Fireworks 10, Export SVG Extension by Aaron Beall (http://fireworks.abeall.com) . Version: 0.6.1  -->
<!DOCTYPE svg PUBLIC "-//W3C//DTD SVG 1.1//EN" "http://www.w3.org/Graphics/SVG/1.1/DTD/svg11.dtd">
<svg id="Untitled-Page%201" viewBox="0 0 25 25" style="background-color:#ffffff00" version="1.1"
	xmlns="http://www.w3.org/2000/svg" xmlns:xlink="http://www.w3.org/1999/xlink" xml:space="preserve"
	x="0px" y="0px" width="25px" height="25px"
>
	<g>
		<path d="M 17.5522 0 L 7.4478 0 C 3.3411 0 0 3.3408 0 7.4473 L 0 17.5527 C 0 21.6592 3.3411 25 7.4478 25 L 17.5522 25 C 21.6589 25 25 21.6592 25 17.5527 L 25 7.4473 C 25 3.3408 21.6589 0 17.5522 0 ZM 22.4849 17.5527 C 22.4849 20.2764 20.2766 22.4854 17.5522 22.4854 L 7.4478 22.4854 C 4.7235 22.4854 2.5151 20.2764 2.5151 17.5527 L 2.5151 7.4473 C 2.5151 4.7236 4.7235 2.5146 7.4478 2.5146 L 17.5522 2.5146 C 20.2766 2.5146 22.4849 4.7236 22.4849 7.4473 L 22.4849 17.5527 L 22.4849 17.5527 Z" fill="#293895"/>
		<path d="M 12.5 6.0342 C 8.9348 6.0342 6.0342 8.9346 6.0342 12.5 C 6.0342 16.0654 8.9348 18.9658 12.5 18.9658 C 16.0652 18.9658 18.9658 16.0654 18.9658 12.5 C 18.9658 8.9346 16.0652 6.0342 12.5 6.0342 ZM 12.5 16.4512 C 10.318 16.4512 8.5493 14.6816 8.5493 12.5 C 8.5493 10.3179 10.318 8.5488 12.5 8.5488 C 14.682 8.5488 16.4507 10.3179 16.4507 12.5 C 16.4507 14.6816 14.682 16.4512 12.5 16.4512 Z" fill="#293895"/>
		<path d="M 18.9783 4.5332 C 19.8339 4.5332 20.5276 5.2275 20.5276 6.083 C 20.5276 6.9385 19.8339 7.6318 18.9783 7.6318 C 18.1226 7.6318 17.4291 6.9385 17.4291 6.083 C 17.4291 5.2275 18.1226 4.5332 18.9783 4.5332 Z" fill="#293895"/>
	</g>
</svg>