<?xml version="1.0" standalone="no"?>
<!-- Generator: Adobe Fireworks 10, Export SVG Extension by Aaron Beall (http://fireworks.abeall.com) . Version: 0.6.1  -->
<!DOCTYPE svg PUBLIC "-//W3C//DTD SVG 1.1//EN" "http://www.w3.org/Graphics/SVG/1.1/DTD/svg11.dtd">
<svg id="Untitled-P%E1gina%201" viewBox="0 0 18 28" style="background-color:#ffffff00" version="1.1"
	xmlns="http://www.w3.org/2000/svg" xmlns:xlink="http://www.w3.org/1999/xlink" xml:space="preserve"
	x="0px" y="0px" width="18px" height="28px"
>
	<g>
		<path d="M 9 0.3077 C 4.1223 0.3077 0.1539 4.4066 0.1539 9.4446 C 0.1539 11.4694 1.3079 14.5482 3.7856 19.1347 C 5.4764 22.2642 7.1594 24.9073 7.2303 25.0185 L 8.4467 26.9232 C 8.5694 27.1151 8.7772 27.2308 9 27.2308 C 9.2228 27.2308 9.4306 27.1151 9.5533 26.9232 L 10.7697 25.0185 C 10.84 24.9088 12.5106 22.2886 14.2144 19.1347 C 16.6922 14.549 17.8461 11.4698 17.8461 9.4446 C 17.8461 4.4066 13.8777 0.3077 9 0.3077 ZM 13.0569 18.4673 C 11.3768 21.5772 9.7325 24.1561 9.6632 24.2646 L 9 25.3032 L 8.337 24.265 C 8.2674 24.1553 6.6104 21.5532 4.9431 18.4673 C 2.6448 14.2132 1.4794 11.1776 1.4794 9.4446 C 1.4794 5.1616 4.8531 1.6771 9 1.6771 C 13.1469 1.6771 16.5206 5.1616 16.5206 9.4446 C 16.5206 11.178 15.3552 14.2136 13.0569 18.4673 Z" fill="#ffffff"/>
		<path d="M 9 4.3218 C 6.2956 4.3218 4.0953 6.5945 4.0953 9.3875 C 4.0953 12.1812 6.2956 14.4536 9 14.4536 C 11.7044 14.4536 13.9047 12.1812 13.9047 9.3875 C 13.9047 6.5945 11.7044 4.3218 9 4.3218 ZM 9 13.0849 C 7.0264 13.0849 5.4209 11.4263 5.4209 9.3875 C 5.4209 7.3495 7.0264 5.6908 9 5.6908 C 10.9736 5.6908 12.5791 7.3495 12.5791 9.3875 C 12.5791 11.4263 10.9736 13.0849 9 13.0849 Z" fill="#ffffff"/>
	</g>
</svg>