<?xml version="1.0" standalone="no"?>
<!-- Generator: Adobe Fireworks 10, Export SVG Extension by Aaron Beall (http://fireworks.abeall.com) . Version: 0.6.1  -->
<!DOCTYPE svg PUBLIC "-//W3C//DTD SVG 1.1//EN" "http://www.w3.org/Graphics/SVG/1.1/DTD/svg11.dtd">
<svg id="Untitled-Page%201" viewBox="0 0 45 28" style="background-color:#ffffff00" version="1.1"
	xmlns="http://www.w3.org/2000/svg" xmlns:xlink="http://www.w3.org/1999/xlink" xml:space="preserve"
	x="0px" y="0px" width="45px" height="28px"
>
	<g id="Layer%201">
		<g>
			<path d="M 5.1231 8.4503 C 5.1231 6.1511 7.0338 4.2805 9.3824 4.2805 L 18.9437 4.2805 C 20.4283 4.2805 21.7374 5.0283 22.5 6.1592 C 23.2627 5.0283 24.5716 4.2805 26.0563 4.2805 L 35.6177 4.2805 C 37.9662 4.2805 39.8769 6.1511 39.8769 8.4503 L 39.8769 8.6422 L 40.9432 8.6422 L 40.9432 4.5762 C 40.9432 2.0527 38.8463 0 36.2689 0 L 8.731 0 C 6.1536 0 4.0567 2.0527 4.0567 4.5762 L 4.0567 8.6422 L 5.123 8.6422 L 5.123 8.4503 L 5.1231 8.4503 Z" fill="#333333"/>
			<path d="M 43.2098 10.5894 L 1.7901 10.5894 C 0.803 10.5894 0 11.3755 0 12.342 L 0 22.5156 C 0 23.4819 0.803 24.2681 1.7901 24.2681 L 2.5353 24.2681 L 1.6548 26.7009 C 1.4713 27.2076 1.7424 27.7642 2.26 27.9437 C 2.3699 27.9817 2.482 28 2.5922 28 C 3.0016 28 3.3851 27.7506 3.5297 27.3511 L 4.6455 24.2681 L 40.3546 24.2681 L 41.4703 27.3511 C 41.6149 27.7506 41.9983 28 42.4078 28 C 42.518 28 42.6301 27.9817 42.74 27.9437 C 43.2577 27.7642 43.5287 27.2075 43.3452 26.7009 L 42.4647 24.2681 L 43.2099 24.2681 C 44.1969 24.2681 45 23.4819 45 22.5156 L 45 12.342 C 45 11.3755 44.1969 10.5894 43.2098 10.5894 Z" fill="#333333"/>
			<path d="M 26.0563 6.2278 C 24.8045 6.2278 23.7861 7.2247 23.7861 8.4503 L 23.7861 8.6422 L 37.8878 8.6422 L 37.8878 8.4503 C 37.8878 7.2247 36.8694 6.2278 35.6177 6.2278 L 26.0563 6.2278 Z" fill="#333333"/>
			<path d="M 9.3824 6.2278 C 8.1306 6.2278 7.1121 7.2247 7.1121 8.4503 L 7.1121 8.6422 L 21.214 8.6422 L 21.214 8.4503 C 21.214 7.2247 20.1956 6.2278 18.9437 6.2278 L 9.3824 6.2278 Z" fill="#333333"/>
		</g>
	</g>
</svg>