<?xml version="1.0" standalone="no"?>
<!-- Generator: Adobe Fireworks 10, Export SVG Extension by Aaron Beall (http://fireworks.abeall.com) . Version: 0.6.1  -->
<!DOCTYPE svg PUBLIC "-//W3C//DTD SVG 1.1//EN" "http://www.w3.org/Graphics/SVG/1.1/DTD/svg11.dtd">
<svg id="Untitled-Page%201" viewBox="0 0 31 31" style="background-color:#ffffff00" version="1.1"
	xmlns="http://www.w3.org/2000/svg" xmlns:xlink="http://www.w3.org/1999/xlink" xml:space="preserve"
	x="0px" y="0px" width="31px" height="31px"
>
	<g id="Layer%201">
		<g>
			<path d="M 26.613 4.3869 C 26.3536 4.1274 25.9319 4.1274 25.6725 4.3869 L 16.3594 13.6998 C 16.1001 13.9593 16.1001 14.3811 16.3594 14.6405 C 16.4899 14.7695 16.66 14.8348 16.8306 14.8348 C 17.0009 14.8348 17.171 14.7696 17.3002 14.6405 L 26.613 5.3276 C 26.8726 5.0681 26.8726 4.6463 26.613 4.3869 L 26.613 4.3869 Z" fill="#000000"/>
			<path d="M 26.1434 4.1913 C 25.7764 4.1913 25.4781 4.4894 25.4781 4.8566 L 25.4781 12.8392 C 25.4781 13.2064 25.7764 13.5044 26.1434 13.5044 C 26.5107 13.5044 26.8086 13.2064 26.8086 12.8392 L 26.8086 4.8566 C 26.8086 4.4894 26.5107 4.1913 26.1434 4.1913 L 26.1434 4.1913 Z" fill="#000000"/>
			<path d="M 26.1434 4.1913 L 18.1609 4.1913 C 17.7937 4.1913 17.4957 4.4894 17.4957 4.8566 C 17.4957 5.2238 17.7937 5.5217 18.1609 5.5217 L 26.1434 5.5217 C 26.5107 5.5217 26.8086 5.2237 26.8086 4.8565 C 26.8086 4.4893 26.5107 4.1913 26.1434 4.1913 L 26.1434 4.1913 Z" fill="#000000"/>
			<path d="M 14.6393 16.3608 C 14.3798 16.1014 13.958 16.1014 13.6985 16.3608 L 4.3855 25.6738 C 4.1261 25.9332 4.1261 26.355 4.3855 26.6144 C 4.516 26.7435 4.6863 26.8087 4.8566 26.8087 C 5.027 26.8087 5.1971 26.7435 5.3263 26.6144 L 14.6393 17.3014 C 14.8988 17.042 14.8988 16.6202 14.6393 16.3608 L 14.6393 16.3608 Z" fill="#000000"/>
			<path d="M 4.8566 17.4956 C 4.4893 17.4956 4.1914 17.7936 4.1914 18.1608 L 4.1914 26.1434 C 4.1914 26.5106 4.4893 26.8087 4.8566 26.8087 C 5.2236 26.8087 5.5217 26.5106 5.5217 26.1434 L 5.5217 18.1608 C 5.5217 17.7936 5.2236 17.4956 4.8566 17.4956 L 4.8566 17.4956 Z" fill="#000000"/>
			<path d="M 12.8391 25.4782 L 4.8566 25.4782 C 4.4893 25.4782 4.1914 25.7762 4.1914 26.1434 C 4.1914 26.5106 4.4893 26.8087 4.8566 26.8087 L 12.8391 26.8087 C 13.2063 26.8087 13.5043 26.5106 13.5043 26.1434 C 13.5043 25.7762 13.2063 25.4782 12.8391 25.4782 L 12.8391 25.4782 Z" fill="#000000"/>
			<path d="M 29.4695 28.8043 C 29.4695 29.1702 29.1702 29.4695 28.8043 29.4695 L 2.1957 29.4695 C 1.8298 29.4695 1.5305 29.1702 1.5305 28.8043 L 1.5305 2.1957 C 1.5305 1.8298 1.8298 1.5305 2.1957 1.5305 L 28.8043 1.5305 C 29.1702 1.5305 29.4695 1.8298 29.4695 2.1957 L 29.4695 28.8043 L 29.4695 28.8043 ZM 28.8043 0.2 L 2.1957 0.2 C 1.0955 0.2 0.2001 1.0954 0.2001 2.1957 L 0.2001 28.8043 C 0.2001 29.9046 1.0955 30.8 2.1957 30.8 L 28.8043 30.8 C 29.9045 30.8 30.7999 29.9046 30.7999 28.8043 L 30.7999 2.1957 C 30.7999 1.0954 29.9045 0.2 28.8043 0.2 L 28.8043 0.2 Z" fill="#000000"/>
		</g>
	</g>
</svg>