<?xml version="1.0" standalone="no"?>
<!-- Generator: Adobe Fireworks 10, Export SVG Extension by Aaron Beall (http://fireworks.abeall.com) . Version: 0.6.1  -->
<!DOCTYPE svg PUBLIC "-//W3C//DTD SVG 1.1//EN" "http://www.w3.org/Graphics/SVG/1.1/DTD/svg11.dtd">
<svg id="Untitled-Page%201" viewBox="0 0 64 61" style="background-color:#ffffff00" version="1.1"
	xmlns="http://www.w3.org/2000/svg" xmlns:xlink="http://www.w3.org/1999/xlink" xml:space="preserve"
	x="0px" y="0px" width="64px" height="61px"
>
	<g>
		<g id="5915797_line_location_media_pin_social_icon">
			<path d="M 31.225 52.5132 L 29.7528 50.5789 C 29.6975 50.5066 24.4034 43.5298 19.8029 35.8896 L 23.0253 34.0295 C 26.0546 39.0767 29.4135 43.8376 31.2744 46.4146 C 36.5551 39.313 46.4288 24.7947 46.5044 18.478 C 46.6017 10.3511 39.9227 3.7097 31.6207 3.7097 C 23.3186 3.7097 16.532 10.3511 16.4975 18.478 C 16.4901 20.2063 17.262 23.6763 20.9713 30.4321 L 17.6727 32.168 C 14.3499 26.1318 12.7362 21.6392 12.7466 18.478 C 12.7799 8.3184 21.268 0 31.6507 0 C 42.0336 0 50.3867 8.3184 50.2552 18.478 C 50.133 27.9263 34.4974 48.2986 32.7286 50.5789 L 31.225 52.5132 L 31.225 52.5132 Z" fill="#333333"/>
			<path d="M 31.5308 14.7964 C 29.4659 14.7964 27.7645 16.4539 27.7501 18.478 C 27.7356 20.5005 29.4102 22.1531 31.4711 22.1531 C 33.5321 22.1531 35.2335 20.5005 35.2518 18.478 C 35.2701 16.4539 33.5957 14.7964 31.5308 14.7964 L 31.5308 14.7964 ZM 31.4414 25.8208 C 27.3045 25.8208 23.9741 22.5386 23.9992 18.478 C 24.0243 14.4094 27.4081 11.1079 31.5607 11.1079 C 35.7133 11.1079 39.0435 14.4094 39.0027 18.478 C 38.9619 22.5386 35.5783 25.8208 31.4414 25.8208 L 31.4414 25.8208 Z" fill="#333333"/>
		</g>
		<g id="6125230_location_map_marker_navigation_pin_icon">
			<path d="M 53.4518 40.7261 C 51.9234 40.2036 50.3787 41.5464 50.6711 43.1423 C 50.8095 43.8972 51.3477 44.5107 52.0757 44.7434 C 56.8699 46.3284 58.9965 48.2207 58.9777 49.3901 C 58.9302 52.3333 47.9418 56.78 31.4883 56.78 C 15.0348 56.78 4.1753 52.3333 4.2131 49.3901 C 4.2281 48.2207 6.4095 46.3284 11.2498 44.7434 C 12.8025 44.252 13.265 42.2654 12.082 41.1675 C 11.522 40.6484 10.7206 40.479 9.9902 40.7261 C 1.7897 43.4124 0.0315 46.9209 0.0005 49.3901 C -0.0955 57.0129 15.7373 61 31.4271 61 C 47.117 61 63.0654 57.0129 63.1903 49.3901 C 63.2308 46.9209 61.5742 43.4124 53.4518 40.7261 L 53.4518 40.7261 Z" fill="#333333"/>
		</g>
	</g>
</svg>