<?xml version="1.0" standalone="no"?>
<!-- Generator: Adobe Fireworks 10, Export SVG Extension by Aaron Beall (http://fireworks.abeall.com) . Version: 0.6.1  -->
<!DOCTYPE svg PUBLIC "-//W3C//DTD SVG 1.1//EN" "http://www.w3.org/Graphics/SVG/1.1/DTD/svg11.dtd">
<svg id="Untitled-P%E1gina%201" viewBox="0 0 19 25" style="background-color:#ffffff00" version="1.1"
	xmlns="http://www.w3.org/2000/svg" xmlns:xlink="http://www.w3.org/1999/xlink" xml:space="preserve"
	x="0px" y="0px" width="19px" height="25px"
>
	<g>
		<path d="M 17.8556 21.4556 L 15.5112 17.363 C 15.0437 16.5502 13.9913 16.291 13.1659 16.7861 L 11.1484 17.9962 C 11.0623 17.9121 10.9728 17.825 10.8789 17.7325 C 10.0153 16.8912 8.8336 15.7389 7.7594 13.8624 C 6.6819 11.9814 6.2759 10.3607 5.9791 9.1775 C 5.9475 9.0521 5.9177 8.9315 5.8877 8.8165 L 7.2412 8.0052 L 7.9071 7.6056 C 8.7339 7.1094 9.0259 6.0435 8.5598 5.2296 L 6.2153 1.1362 C 5.7495 0.3228 4.6969 0.0635 3.87 0.5593 L 2.74 1.2418 L 2.7583 1.2734 C 2.3583 1.5847 1.9918 1.9701 1.6812 2.4073 C 1.3906 2.825 1.1704 3.2389 1.0081 3.6689 C -0.3196 7.1124 0.438 10.7839 3.6207 16.3406 C 8.0206 24.0201 12.9392 24.8382 13.152 24.8705 C 13.6176 24.9359 14.0778 24.9404 14.5619 24.8833 C 15.082 24.8202 15.5887 24.6812 16.0493 24.4772 L 16.0645 24.4998 L 17.203 23.8331 C 18.0283 23.3369 18.321 22.2714 17.8556 21.4556 ZM 16.6824 22.9233 L 16.1786 23.225 L 15.9794 23.3392 C 15.6655 23.5202 15.1431 23.7527 14.4451 23.8376 C 14.0493 23.8834 13.6716 23.8796 13.2998 23.8278 C 13.2533 23.8203 8.637 23.012 4.5093 15.8073 C 0.9999 9.6816 0.9541 6.6779 1.9668 4.0502 C 2.0986 3.7012 2.2793 3.3628 2.5168 3.0222 C 2.9331 2.4374 3.3865 2.0843 3.6924 1.892 L 4.3905 1.4683 C 4.7264 1.2662 5.1469 1.3556 5.3265 1.6696 L 7.6711 5.7622 C 7.8505 6.0762 7.7225 6.4954 7.3861 6.6982 L 4.6821 8.3185 L 4.7928 8.7122 C 4.8545 8.9307 4.9163 9.1749 4.9814 9.4385 C 5.2932 10.6841 5.7192 12.3882 6.8705 14.3954 C 8.0182 16.3999 9.261 17.6116 10.1676 18.4958 C 10.3635 18.6862 10.5424 18.8613 10.7009 19.0254 L 10.9829 19.3169 L 13.6857 17.695 C 14.0225 17.4937 14.4442 17.5846 14.624 17.8975 L 16.9673 21.9889 C 17.1464 22.3021 17.0187 22.722 16.6824 22.9233 Z" fill="#ffffff"/>
	</g>
</svg>