<?xml version="1.0" standalone="no"?>
<!-- Generator: Adobe Fireworks 10, Export SVG Extension by Aaron Beall (http://fireworks.abeall.com) . Version: 0.6.1  -->
<!DOCTYPE svg PUBLIC "-//W3C//DTD SVG 1.1//EN" "http://www.w3.org/Graphics/SVG/1.1/DTD/svg11.dtd">
<svg id="Untitled-Page%201" viewBox="0 0 13 25" style="background-color:#ffffff00" version="1.1"
	xmlns="http://www.w3.org/2000/svg" xmlns:xlink="http://www.w3.org/1999/xlink" xml:space="preserve"
	x="0px" y="0px" width="13px" height="25px"
>
	<path id="Forma%201" d="M 12.5105 0.0049 L 9.392 0 C 5.889 0 3.6255 2.415 3.6255 6.1528 L 3.6255 8.9883 L 0.4902 8.9883 C 0.2195 8.9883 0 9.2178 0 9.499 L 0 13.6094 C 0 13.8906 0.2196 14.1191 0.4902 14.1191 L 3.6252 14.1191 L 3.6252 24.4902 C 3.6252 24.7725 3.8447 25 4.1156 25 L 8.2058 25 C 8.4769 25 8.6963 24.7725 8.6963 24.4902 L 8.6963 14.1191 L 12.3617 14.1191 C 12.6326 14.1191 12.8519 13.8906 12.8519 13.6094 L 12.8536 9.499 C 12.8536 9.3643 12.8018 9.2354 12.71 9.1387 C 12.6179 9.043 12.4932 8.9883 12.363 8.9883 L 8.6965 8.9883 L 8.6965 6.584 C 8.6965 5.4277 8.9612 4.8418 10.4092 4.8418 L 12.5098 4.8413 C 12.7805 4.8413 13 4.6128 13 4.3306 L 13 0.5146 C 13 0.2344 12.7808 0.0059 12.5105 0.0049 Z" fill="#293895"/>
</svg>