<?xml version="1.0" standalone="no"?>
<!-- Generator: Adobe Fireworks 10, Export SVG Extension by Aaron Beall (http://fireworks.abeall.com) . Version: 0.6.1  -->
<!DOCTYPE svg PUBLIC "-//W3C//DTD SVG 1.1//EN" "http://www.w3.org/Graphics/SVG/1.1/DTD/svg11.dtd">
<svg id="Untitled-Page%201" viewBox="0 0 48 48" style="background-color:#ffffff00" version="1.1"
	xmlns="http://www.w3.org/2000/svg" xmlns:xlink="http://www.w3.org/1999/xlink" xml:space="preserve"
	x="0px" y="0px" width="48px" height="48px"
>
	<path id="Elipse" d="M 0 24 C 0 10.7451 10.745 0 24 0 C 37.255 0 48 10.7451 48 24 C 48 37.2549 37.255 48 24 48 C 10.745 48 0 37.2549 0 24 Z" fill="#4867aa"/>
	<path id="Forma%201" d="M 28.5481 12.0044 L 25.6696 12 C 22.4362 12 20.3466 14.2217 20.3466 17.6606 L 20.3466 20.2705 L 17.4525 20.2705 C 17.2025 20.2705 17 20.4805 17 20.7393 L 17 24.5205 C 17 24.7798 17.2028 24.9893 17.4525 24.9893 L 20.3464 24.9893 L 20.3464 34.5313 C 20.3464 34.791 20.549 35 20.799 35 L 24.5747 35 C 24.8247 35 25.0275 34.791 25.0275 34.5313 L 25.0275 24.9893 L 28.4109 24.9893 C 28.661 24.9893 28.8632 24.7798 28.8632 24.5205 L 28.865 20.7393 C 28.865 20.6147 28.8169 20.4961 28.7323 20.4087 C 28.6475 20.3203 28.5321 20.2705 28.412 20.2705 L 25.0276 20.2705 L 25.0276 18.0571 C 25.0276 16.9946 25.2719 16.4541 26.6085 16.4541 L 28.5475 16.4541 C 28.7974 16.4541 29 16.2437 29 15.9849 L 29 12.4741 C 29 12.2153 28.7976 12.0049 28.5481 12.0044 Z" fill="#ffffff"/>
</svg>