<?xml version="1.0" standalone="no"?>
<!-- Generator: Adobe Fireworks 10, Export SVG Extension by Aaron Beall (http://fireworks.abeall.com) . Version: 0.6.1  -->
<!DOCTYPE svg PUBLIC "-//W3C//DTD SVG 1.1//EN" "http://www.w3.org/Graphics/SVG/1.1/DTD/svg11.dtd">
<svg id="Untitled-P%E1gina%201" viewBox="0 0 50 50" style="background-color:#ffffff00" version="1.1"
	xmlns="http://www.w3.org/2000/svg" xmlns:xlink="http://www.w3.org/1999/xlink" xml:space="preserve"
	x="0px" y="0px" width="50px" height="50px"
>
	<g>
		<rect x="0" y="0" width="50" height="50" fill="#00aeef"/>
		<path id="Forma%201" d="M 39.6897 12.5698 C 38.626 13.248 37.4478 13.741 36.1941 14.0085 C 35.1908 12.854 33.762 12.1355 32.1793 12.1355 C 29.1403 12.1355 26.6772 14.7908 26.6772 18.063 C 26.6772 18.5276 26.7263 18.9802 26.8196 19.4133 C 22.2478 19.1665 18.1937 16.8057 15.4805 13.2192 C 15.0066 14.0928 14.7363 15.1121 14.7363 16.1987 C 14.7363 18.2566 15.7087 20.0715 17.1831 21.1328 C 16.2814 21.1003 15.4337 20.8328 14.6915 20.3884 L 14.6915 20.4624 C 14.6915 23.335 16.5881 25.73 19.1038 26.2769 C 18.6429 26.4109 18.1572 26.4844 17.6547 26.4844 C 17.2993 26.4844 16.9559 26.446 16.6187 26.3772 C 17.3191 28.7319 19.3502 30.4458 21.7568 30.4956 C 19.8746 32.0842 17.5017 33.0315 14.9247 33.0315 C 14.4805 33.0315 14.0427 33.0037 13.6121 32.9507 C 16.0477 34.6313 18.9376 35.6135 22.0455 35.6135 C 32.1647 35.6135 37.6981 26.5798 37.6981 18.7458 L 37.6799 17.9778 C 38.7585 17.1453 39.6931 16.1008 40.4297 14.9131 C 39.4425 15.384 38.3838 15.7041 37.271 15.8469 C 38.4066 15.1133 39.2773 13.9504 39.6897 12.5698 Z" fill="#ffffff"/>
	</g>
</svg>