<?xml version="1.0" standalone="no"?>
<!-- Generator: Adobe Fireworks 10, Export SVG Extension by Aaron Beall (http://fireworks.abeall.com) . Version: 0.6.1  -->
<!DOCTYPE svg PUBLIC "-//W3C//DTD SVG 1.1//EN" "http://www.w3.org/Graphics/SVG/1.1/DTD/svg11.dtd">
<svg id="Untitled-P%E1gina%201" viewBox="0 0 55 38" style="background-color:#ffffff00" version="1.1"
	xmlns="http://www.w3.org/2000/svg" xmlns:xlink="http://www.w3.org/1999/xlink" xml:space="preserve"
	x="0px" y="0px" width="55px" height="38px"
>
	<g id="Capa%201">
		<rect x="16" y="9" width="21" height="18" fill="#f6f7fa"/>
		<g>
			<path d="M 52.243 3.6448 C 50.3163 1.3616 46.759 0.4299 39.9651 0.4299 L 15.3037 0.4299 C 8.3545 0.4299 4.7368 1.4216 2.8173 3.8523 C 0.9458 6.2229 0.9458 9.7151 0.9458 14.5488 L 0.9458 23.7615 C 0.9458 33.1255 3.1663 37.8799 15.3037 37.8799 L 39.9653 37.8799 C 45.8568 37.8799 49.1215 37.0581 51.2335 35.043 C 53.3995 32.9766 54.3236 29.6025 54.3236 23.7615 L 54.3236 14.5488 C 54.3236 9.4514 54.1788 5.9382 52.243 3.6448 ZM 35.2145 20.427 L 24.0159 26.2617 C 23.7655 26.3923 23.4917 26.457 23.2183 26.457 C 22.9087 26.457 22.5997 26.3738 22.3262 26.2087 C 21.811 25.8977 21.4965 25.3408 21.4965 24.7405 L 21.4965 13.1082 C 21.4965 12.5088 21.8101 11.9526 22.3243 11.6409 C 22.8386 11.3298 23.4783 11.3086 24.0118 11.5847 L 35.2106 17.3823 C 35.7804 17.677 36.1381 18.2634 36.139 18.9031 C 36.1397 19.5435 35.7834 20.1306 35.2145 20.427 Z" fill="#34a3d4"/>
		</g>
	</g>
</svg>