<?xml version="1.0" standalone="no"?>
<!-- Generator: Adobe Fireworks 10, Export SVG Extension by Aaron Beall (http://fireworks.abeall.com) . Version: 0.6.1  -->
<!DOCTYPE svg PUBLIC "-//W3C//DTD SVG 1.1//EN" "http://www.w3.org/Graphics/SVG/1.1/DTD/svg11.dtd">
<svg id="Untitled-Page%201" viewBox="0 0 31 22" style="background-color:#ffffff00" version="1.1"
	xmlns="http://www.w3.org/2000/svg" xmlns:xlink="http://www.w3.org/1999/xlink" xml:space="preserve"
	x="0px" y="0px" width="31px" height="22px"
>
	<g>
		<path d="M 31 2.0977 L 31 1.9756 C 31 1.5229 30.7966 0.9897 30.4313 0.6206 L 30.3899 0.5786 C 30.3899 0.5786 30.3484 0.5786 30.3484 0.5371 C 30.2656 0.4531 30.1865 0.415 30.1036 0.3311 C 30.0623 0.3311 30.0623 0.2891 30.0208 0.2891 C 29.938 0.2476 29.8174 0.2056 29.7345 0.1675 C 29.6931 0.1675 29.6931 0.126 29.6516 0.126 C 29.5313 0.084 29.407 0.042 29.2864 0.042 C 29.2449 0.042 29.2449 0.042 29.2035 0.042 C 29.083 0.042 28.9172 0 28.7554 0 L 2.1995 0 C 2.0375 0 1.8755 0 1.71 0.042 C 1.6685 0.042 1.627 0.042 1.5894 0.084 C 1.4688 0.126 1.3445 0.126 1.2654 0.1675 C 1.2241 0.1675 1.2241 0.2095 1.1826 0.2095 C 1.0997 0.251 0.9792 0.293 0.8964 0.3311 L 0.8549 0.373 C 0.772 0.415 0.6929 0.4951 0.6101 0.5371 C 0.5686 0.5786 0.5272 0.6206 0.4895 0.6587 C 0.2034 0.9863 0.0415 1.3594 0 1.7705 C 0 1.8125 0 1.8125 0 1.854 L 0 20.1499 C 0 20.1919 0 20.1919 0 20.2334 C 0.0829 20.8086 0.3652 21.3032 0.772 21.5889 C 1.1375 21.8364 1.5856 22 2.1129 22 L 28.8381 22 C 28.8381 22 28.8381 22 28.8795 22 L 28.8795 22 C 29.0001 22 29.1658 22 29.2864 21.958 C 29.3278 21.958 29.3278 21.958 29.3691 21.958 C 29.4897 21.916 29.614 21.916 29.6931 21.874 L 29.7345 21.874 C 30.6309 21.5469 30.9961 20.7627 30.9961 20.0244 L 30.9961 19.9023 L 30.9961 19.8604 L 30.9961 19.8184 L 30.9961 2.2197 C 30.9961 2.1777 30.9961 2.1777 30.9961 2.1357 C 31 2.1396 31 2.1396 31 2.0977 ZM 28.3975 1.5229 L 15.5847 14.1426 L 12.6545 11.2646 L 12.6545 11.2646 L 2.6062 1.519 L 28.3975 1.519 L 28.3975 1.5229 ZM 1.5103 19.6553 L 1.5103 2.5508 L 10.9861 11.7598 L 1.5103 19.6553 ZM 15.178 20.5156 L 2.8511 20.5156 L 12.0859 12.8672 L 15.0537 15.7871 C 15.1742 15.9092 15.2986 15.9512 15.4189 15.9932 L 15.4604 15.9932 C 15.502 15.9932 15.502 15.9932 15.5432 15.9932 L 15.5432 15.9932 C 15.5847 15.9932 15.6262 15.9932 15.6262 15.9932 L 15.6676 15.9932 C 15.7881 15.9512 15.9539 15.9092 16.033 15.7871 L 18.8387 13.0313 L 28.1113 20.5156 L 15.178 20.5156 L 15.178 20.5156 ZM 29.4935 19.6929 L 19.9762 11.9233 L 29.4935 2.5508 L 29.4935 19.6929 Z" fill="#293895"/>
	</g>
</svg>