<?xml version="1.0" standalone="no"?>
<!-- Generator: Adobe Fireworks 10, Export SVG Extension by Aaron Beall (http://fireworks.abeall.com) . Version: 0.6.1  -->
<!DOCTYPE svg PUBLIC "-//W3C//DTD SVG 1.1//EN" "http://www.w3.org/Graphics/SVG/1.1/DTD/svg11.dtd">
<svg id="Untitled-P%E1gina%201" viewBox="0 0 21 19" style="background-color:#ffffff00" version="1.1"
	xmlns="http://www.w3.org/2000/svg" xmlns:xlink="http://www.w3.org/1999/xlink" xml:space="preserve"
	x="0px" y="0px" width="21px" height="19px"
>
	<g>
		<path d="M 12.4968 10.9971 L 0.4995 10.9971 L 0.4995 8.9976 L 12.4968 8.9976 L 12.4968 10.9971 Z" fill="#ffffff"/>
		<path d="M 9.7043 5.7913 L 13.2036 9.2905 C 13.5942 9.681 13.5942 10.3137 13.2036 10.7042 L 9.7043 14.2034 L 8.2908 12.7897 L 11.083 9.9973 L 8.2908 7.205 L 9.7043 5.7913 Z" fill="#ffffff"/>
		<path d="M 11.4971 2.9989 C 8.7803 2.9989 6.4233 4.5469 5.2631 6.8135 L 3.4832 5.9025 C 4.9722 2.994 8.0007 0.9993 11.4971 0.9993 C 16.4666 0.9993 20.495 5.0277 20.495 9.9973 C 20.495 14.9669 16.4666 18.9954 11.4971 18.9954 C 8.0007 18.9954 4.9722 17.0007 3.4832 14.0922 L 5.2631 13.1802 C 6.4233 15.4473 8.7803 16.9958 11.4971 16.9958 C 15.3623 16.9958 18.4954 13.8627 18.4954 9.9973 C 18.4954 6.132 15.3623 2.9989 11.4971 2.9989 Z" fill="#ffffff"/>
	</g>
</svg>