<?xml version="1.0" standalone="no"?>
<!-- Generator: Adobe Fireworks 10, Export SVG Extension by Aaron Beall (http://fireworks.abeall.com) . Version: 0.6.1  -->
<!DOCTYPE svg PUBLIC "-//W3C//DTD SVG 1.1//EN" "http://www.w3.org/Graphics/SVG/1.1/DTD/svg11.dtd">
<svg id="Untitled-Page%201" viewBox="0 0 48 48" style="background-color:#ffffff00" version="1.1"
	xmlns="http://www.w3.org/2000/svg" xmlns:xlink="http://www.w3.org/1999/xlink" xml:space="preserve"
	x="0px" y="0px" width="48px" height="48px"
>
	<path id="Elipse" d="M 0 24 C 0 10.7451 10.745 0 24 0 C 37.255 0 48 10.7451 48 24 C 48 37.2549 37.255 48 24 48 C 10.745 48 0 37.2549 0 24 Z" fill="#d90000"/>
	<path id="Forma%201" d="M 31.2931 16.2764 C 26.739 15.9531 21.3414 15.8652 16.7043 16.2764 C 15.2645 16.4468 14.2782 18.2959 14.1708 19.7002 C 13.9431 22.6509 13.9431 24.3291 14.1708 27.2798 C 14.2793 28.6855 15.2407 30.5439 16.7054 30.7402 C 21.3975 31.063 26.7684 31.1099 31.2944 30.7402 C 32.7129 30.4795 33.7212 28.6855 33.8296 27.2798 C 34.0568 24.3291 34.0568 22.4673 33.8296 19.5161 C 33.7186 18.1113 32.9254 16.3398 31.2931 16.2764 ZM 21.499 27.2324 L 21.499 19.6689 L 27.7485 23.4507 L 21.499 27.2324 Z" fill="#ffffff"/>
</svg>