<?xml version="1.0" standalone="no"?>
<!-- Generator: Adobe Fireworks 10, Export SVG Extension by Aaron Beall (http://fireworks.abeall.com) . Version: 0.6.1  -->
<!DOCTYPE svg PUBLIC "-//W3C//DTD SVG 1.1//EN" "http://www.w3.org/Graphics/SVG/1.1/DTD/svg11.dtd">
<svg id="Untitled-P%E1gina%201" viewBox="0 0 24 18" style="background-color:#ffffff00" version="1.1"
	xmlns="http://www.w3.org/2000/svg" xmlns:xlink="http://www.w3.org/1999/xlink" xml:space="preserve"
	x="0px" y="0px" width="24px" height="18px"
>
	<g>
		<path d="M 23.9231 2.5366 L 23.9231 2.4427 C 23.9231 2.0946 23.7666 1.6844 23.4856 1.4005 L 23.4537 1.3682 C 23.4537 1.3682 23.4219 1.3682 23.4219 1.3362 C 23.3582 1.2716 23.2974 1.2423 23.2336 1.1777 C 23.2017 1.1777 23.2017 1.1454 23.1698 1.1454 C 23.1061 1.1135 23.0134 1.0812 22.9496 1.0519 C 22.9178 1.0519 22.9178 1.02 22.8859 1.02 C 22.7933 0.9877 22.6977 0.9554 22.6049 0.9554 C 22.573 0.9554 22.573 0.9554 22.5411 0.9554 C 22.4485 0.9554 22.3209 0.9231 22.1964 0.9231 L 1.7688 0.9231 C 1.6442 0.9231 1.5196 0.9231 1.3923 0.9554 C 1.3604 0.9554 1.3284 0.9554 1.2995 0.9877 C 1.2067 1.02 1.1111 1.02 1.0503 1.0519 C 1.0186 1.0519 1.0186 1.0842 0.9866 1.0842 C 0.9229 1.1161 0.8302 1.1484 0.7664 1.1777 L 0.7345 1.21 C 0.6708 1.2423 0.6099 1.304 0.5463 1.3362 C 0.5143 1.3682 0.4825 1.4005 0.4535 1.4297 C 0.2334 1.6818 0.1089 1.9688 0.0769 2.285 C 0.0769 2.3173 0.0769 2.3173 0.0769 2.3492 L 0.0769 16.423 C 0.0769 16.4553 0.0769 16.4553 0.0769 16.4872 C 0.1407 16.9297 0.3579 17.3102 0.6708 17.5299 C 0.9519 17.7203 1.2966 17.8462 1.7023 17.8462 L 22.2601 17.8462 C 22.2601 17.8462 22.2601 17.8462 22.2919 17.8462 L 22.2919 17.8462 C 22.3847 17.8462 22.5121 17.8462 22.6049 17.8138 C 22.6367 17.8138 22.6367 17.8138 22.6686 17.8138 C 22.7614 17.7816 22.8569 17.7816 22.9178 17.7493 L 22.9496 17.7493 C 23.6392 17.4976 23.92 16.8944 23.92 16.3265 L 23.92 16.2325 L 23.92 16.2003 L 23.92 16.168 L 23.92 2.6306 C 23.92 2.5983 23.92 2.5983 23.92 2.5659 C 23.9231 2.569 23.9231 2.569 23.9231 2.5366 ZM 21.9211 2.0946 L 12.0652 11.802 L 9.8112 9.5882 L 9.8112 9.5882 L 2.0817 2.0916 L 21.9211 2.0916 L 21.9211 2.0946 ZM 1.2386 16.0425 L 1.2386 2.8853 L 8.5278 9.9691 L 1.2386 16.0425 ZM 11.7523 16.7043 L 2.27 16.7043 L 9.3738 10.8209 L 11.6567 13.067 C 11.7494 13.1609 11.8451 13.1932 11.9376 13.2255 L 11.9696 13.2255 C 12.0015 13.2255 12.0015 13.2255 12.0332 13.2255 L 12.0332 13.2255 C 12.0652 13.2255 12.0971 13.2255 12.0971 13.2255 L 12.1289 13.2255 C 12.2216 13.1932 12.3491 13.1609 12.41 13.067 L 14.5682 10.9471 L 21.701 16.7043 L 11.7523 16.7043 L 11.7523 16.7043 ZM 22.7643 16.0714 L 15.4432 10.0948 L 22.7643 2.8853 L 22.7643 16.0714 Z" fill="#ffffff"/>
	</g>
</svg>