<?xml version="1.0" standalone="no"?>
<!-- Generator: Adobe Fireworks 10, Export SVG Extension by Aaron Beall (http://fireworks.abeall.com) . Version: 0.6.1  -->
<!DOCTYPE svg PUBLIC "-//W3C//DTD SVG 1.1//EN" "http://www.w3.org/Graphics/SVG/1.1/DTD/svg11.dtd">
<svg id="Untitled-P%E1gina%201" viewBox="0 0 50 50" style="background-color:#ffffff00" version="1.1"
	xmlns="http://www.w3.org/2000/svg" xmlns:xlink="http://www.w3.org/1999/xlink" xml:space="preserve"
	x="0px" y="0px" width="50px" height="50px"
>
	<defs>
		<linearGradient id="gradient1" x1="51.45%" y1="-14.356%" x2="51.45%" y2="93.144%">
			<stop stop-color="#751cc0" stop-opacity="1" offset="0%"/>
			<stop stop-color="#ef5233" stop-opacity="1" offset="66.1111%"/>
			<stop stop-color="#f5ab3e" stop-opacity="1" offset="100%"/>
		</linearGradient>
	</defs>
	<g id="Capa%201">
		<g>
			<rect x="0" y="0" width="50" height="50" fill="url(#gradient1)"/>
			<g>
				<path d="M 30.59 11.8044 L 18.5937 11.8044 C 14.52 11.8044 11.2056 15.1792 11.2056 19.3274 L 11.2056 31.5427 C 11.2056 35.6912 14.52 39.0664 18.5937 39.0664 L 30.59 39.0664 C 34.6637 39.0664 37.9781 35.6912 37.9781 31.5427 L 37.9781 19.3274 C 37.9781 15.1792 34.6637 11.8044 30.59 11.8044 ZM 35.6029 31.5427 C 35.6029 34.3574 33.3537 36.6482 30.59 36.6482 L 18.5937 36.6482 C 15.83 36.6482 13.5807 34.3574 13.5807 31.5427 L 13.5807 19.3274 C 13.5807 16.5127 15.83 14.2227 18.5937 14.2227 L 30.59 14.2227 C 33.3537 14.2227 35.6029 16.5127 35.6029 19.3274 L 35.6029 31.5427 L 35.6029 31.5427 Z" fill="#ffffff"/>
				<path d="M 24.5918 18.4109 C 20.7878 18.4109 17.6935 21.5615 17.6935 25.4358 C 17.6935 29.3086 20.7878 32.46 24.5918 32.46 C 28.3959 32.46 31.4902 29.3086 31.4902 25.4358 C 31.4902 21.5615 28.3959 18.4109 24.5918 18.4109 ZM 24.5918 30.041 C 22.0978 30.041 20.069 27.9749 20.069 25.4358 C 20.069 22.8953 22.0978 20.8291 24.5918 20.8291 C 27.0859 20.8291 29.1147 22.8953 29.1147 25.4358 C 29.1147 27.9749 27.0855 30.041 24.5918 30.041 Z" fill="#ffffff"/>
				<path d="M 31.78 16.3594 C 31.3224 16.3594 30.8725 16.5491 30.5488 16.8784 C 30.2245 17.2075 30.0376 17.6658 30.0376 18.1338 C 30.0376 18.5999 30.2245 19.0574 30.5488 19.3882 C 30.8725 19.7173 31.3224 19.907 31.78 19.907 C 32.2386 19.907 32.6872 19.7173 33.0122 19.3882 C 33.337 19.0574 33.5218 18.5999 33.5218 18.1338 C 33.5218 17.6658 33.337 17.2075 33.0122 16.8784 C 32.6896 16.5491 32.2386 16.3594 31.78 16.3594 Z" fill="#ffffff"/>
			</g>
		</g>
	</g>
</svg>