<?xml version="1.0" standalone="no"?>
<!-- Generator: Adobe Fireworks 10, Export SVG Extension by Aaron Beall (http://fireworks.abeall.com) . Version: 0.6.1  -->
<!DOCTYPE svg PUBLIC "-//W3C//DTD SVG 1.1//EN" "http://www.w3.org/Graphics/SVG/1.1/DTD/svg11.dtd">
<svg id="Untitled-P%E1gina%201" viewBox="0 0 19 19" style="background-color:#ffffff00" version="1.1"
	xmlns="http://www.w3.org/2000/svg" xmlns:xlink="http://www.w3.org/1999/xlink" xml:space="preserve"
	x="0px" y="0px" width="19px" height="19px"
>
	<g id="Capa%201">
		<g id="3643781_check_checklist_complete_done_mark_icon">
			<path id="cls-1" d="M 9.5071 1.2666 C 3.1738 1.2666 -0.7845 8.1277 2.3821 13.6165 C 5.5488 19.1057 13.4654 19.1057 16.632 13.6165 C 17.3541 12.365 17.7343 10.9453 17.7343 9.5 C 17.7343 4.9529 14.0508 1.2666 9.5071 1.2666 L 9.5071 1.2666 ZM 9.5071 19 C 2.1995 19 -2.3678 11.0833 1.286 4.75 C 4.9398 -1.5833 14.0743 -1.5833 17.7281 4.75 C 18.5613 6.1941 19 7.8325 19 9.5 C 19 14.7466 14.7499 19 9.5071 19 L 9.5071 19 Z" fill="#cccccc"/>
			<path id="cls-12" d="M 8.0325 13.3 C 7.8571 13.2993 7.6898 13.2261 7.5706 13.0974 L 4.6151 9.9307 C 4.3082 9.552 4.5261 8.9832 5.0072 8.9063 C 5.2001 8.8755 5.3964 8.9358 5.5391 9.0693 L 8.0325 11.7356 L 13.4751 5.9028 C 13.782 5.5242 14.3834 5.6199 14.5576 6.075 C 14.6497 6.3157 14.587 6.5879 14.399 6.7639 L 8.4945 13.0974 C 8.3752 13.2261 8.2079 13.2993 8.0325 13.3 L 8.0325 13.3 Z" fill="#cccccc"/>
		</g>
	</g>
</svg>