<?xml version="1.0" standalone="no"?>
<!-- Generator: Adobe Fireworks 10, Export SVG Extension by Aaron Beall (http://fireworks.abeall.com) . Version: 0.6.1  -->
<!DOCTYPE svg PUBLIC "-//W3C//DTD SVG 1.1//EN" "http://www.w3.org/Graphics/SVG/1.1/DTD/svg11.dtd">
<svg id="Untitled-P%E1gina%201" viewBox="0 0 19 15" style="background-color:#ffffff00" version="1.1"
	xmlns="http://www.w3.org/2000/svg" xmlns:xlink="http://www.w3.org/1999/xlink" xml:space="preserve"
	x="0px" y="0px" width="19px" height="15px"
>
	<g>
		<path d="M 17.4655 2.3906 L 14.3824 2.3906 L 12.5372 0.478 C 12.5372 0.478 12.5281 0.4688 12.5236 0.4688 L 12.5144 0.4595 L 12.5144 0.4595 C 12.2404 0.1782 11.8704 0 11.4502 0 L 7.6138 0 C 7.1661 0 6.7688 0.1968 6.4902 0.5107 L 6.4902 0.5156 L 4.686 2.3906 L 1.5347 2.3906 C 0.6851 2.3906 0 3.0752 0 3.9468 L 0 13.4204 C 0 14.2922 0.6851 15 1.5347 15 L 17.4655 15 C 18.3103 15 19 14.2922 19 13.4204 L 19 3.9468 C 19 3.0752 18.3103 2.3906 17.4655 2.3906 ZM 9.5 12.6328 C 7.1753 12.6328 5.2798 10.6826 5.2798 8.2922 C 5.2798 5.897 7.1753 3.9517 9.5 3.9517 C 11.8293 3.9517 13.7202 5.897 13.7202 8.2922 C 13.7202 10.6826 11.8293 12.6328 9.5 12.6328 ZM 17.1776 4.8984 C 16.8259 4.8984 16.5382 4.603 16.5382 4.2373 C 16.5382 3.8721 16.8259 3.5767 17.1776 3.5767 C 17.5294 3.5767 17.817 3.8721 17.817 4.2373 C 17.817 4.603 17.5294 4.8984 17.1776 4.8984 Z" fill="#ffffff"/>
		<path d="M 9.5 5.0107 C 7.7371 5.0107 6.312 6.478 6.312 8.2922 C 6.312 10.1016 7.7371 11.5735 9.5 11.5735 C 11.2584 11.5735 12.688 10.1062 12.688 8.2922 C 12.688 6.478 11.2584 5.0107 9.5 5.0107 Z" fill="#ffffff"/>
	</g>
</svg>