<?xml version="1.0" standalone="no"?>
<!-- Generator: Adobe Fireworks 10, Export SVG Extension by Aaron Beall (http://fireworks.abeall.com) . Version: 0.6.1  -->
<!DOCTYPE svg PUBLIC "-//W3C//DTD SVG 1.1//EN" "http://www.w3.org/Graphics/SVG/1.1/DTD/svg11.dtd">
<svg id="Untitled-Page%201" viewBox="0 0 26 16" style="background-color:#ffffff00" version="1.1"
	xmlns="http://www.w3.org/2000/svg" xmlns:xlink="http://www.w3.org/1999/xlink" xml:space="preserve"
	x="0px" y="0px" width="26px" height="16px"
>
	<g id="Layer%201">
		<g>
			<path d="M 15.9327 0.25 C 16.6583 0.3564 17.3691 0.5459 18.071 0.7705 C 19.297 1.1621 20.4536 1.707 21.5415 2.4136 C 21.6172 2.4624 21.7181 2.4932 21.8073 2.4932 C 23.0852 2.4985 24.3624 2.4971 25.6392 2.498 C 25.7419 2.498 25.8445 2.5088 25.947 2.5151 C 25.947 2.541 25.9506 2.5522 25.9464 2.5581 C 25.887 2.6533 25.8264 2.7476 25.7666 2.8423 C 25.3331 3.5332 24.9626 4.2549 24.7443 5.0532 C 24.7203 5.1387 24.7153 5.2109 24.7714 5.2949 C 25.9088 6.9912 26.2717 8.8535 25.7963 10.8613 C 25.3795 12.6221 24.4078 13.9946 22.9313 14.9668 C 21.8759 15.6616 20.71 15.9927 19.4641 16 C 18.941 16.0029 18.4202 15.9302 17.9091 15.7925 C 16.6632 15.457 15.5956 14.812 14.7156 13.835 C 14.5996 13.707 14.4905 13.5732 14.3666 13.4282 C 13.9012 14.1484 13.4432 14.8569 12.9744 15.584 C 12.5071 14.8594 12.0555 14.1572 11.605 13.4585 C 11.5737 13.4756 11.5648 13.4775 11.5588 13.4834 C 11.5486 13.4922 11.5398 13.5029 11.5316 13.5132 C 10.4674 14.8184 9.1284 15.6187 7.4969 15.8867 C 6.5897 16.0356 5.691 15.9819 4.8097 15.7295 C 3.5607 15.373 2.4993 14.689 1.6417 13.6792 C 0.8035 12.6919 0.2823 11.5459 0.0867 10.2422 C -0.1372 9.0259 0.1355 7.853 0.2035 7.5684 C 0.4009 6.7412 0.7448 5.9814 1.2169 5.2832 C 1.2501 5.2334 1.2618 5.1455 1.2461 5.0864 C 1.0533 4.3535 0.7217 3.686 0.3331 3.0469 C 0.2345 2.8848 0.1162 2.7344 0.007 2.5781 C 0.007 2.5605 0.007 2.542 0.007 2.5239 C 0.0289 2.5269 0.0505 2.5313 0.0719 2.5313 C 1.3793 2.5317 2.6863 2.5322 3.9937 2.5298 C 4.0505 2.5298 4.1139 2.5054 4.1624 2.4727 C 5.0809 1.8608 6.0596 1.376 7.0876 0.9985 C 7.8293 0.7266 8.5862 0.5146 9.3584 0.3594 C 10.106 0.2095 10.8574 0.1035 11.6168 0.0518 C 13.4685 -0.0967 14.9482 0.1074 15.9327 0.25 ZM 14.2938 9.2173 C 14.2938 12.1987 16.623 14.6343 19.4835 14.623 C 22.3547 14.6123 24.6733 12.2451 24.6714 9.2305 C 24.6692 6.124 22.2429 3.7891 19.3722 3.8496 C 16.5381 3.9106 14.3196 6.2832 14.2938 9.2173 ZM 6.5092 3.8291 C 3.7168 3.8037 1.2821 6.2241 1.3308 9.3076 C 1.3762 12.1826 3.6581 14.6201 6.5674 14.5938 C 9.4121 14.5684 11.6985 12.1563 11.7037 9.2344 C 11.7084 6.2334 9.3938 3.8291 6.5092 3.8291 ZM 6.7667 2.4224 C 8.344 2.5225 9.7299 3.0933 10.9005 4.1992 C 12.0687 5.3027 12.7534 6.6792 13.002 8.2979 C 13.2581 6.6982 13.9244 5.335 15.0708 4.2422 C 16.2192 3.1484 17.5863 2.5747 19.1378 2.4531 C 17.2968 1.603 15.3552 1.2422 13.3569 1.2021 C 11.0857 1.1558 8.8765 1.5034 6.7667 2.4224 Z" fill="#ffffff"/>
			<path d="M 19.4729 5.8159 C 21.2496 5.8125 22.6885 7.2993 22.6885 9.1426 C 22.6885 10.9927 21.274 12.4233 19.6053 12.4893 C 17.7416 12.5635 16.2506 11.0215 16.2511 9.1504 C 16.2527 7.2588 17.7545 5.7847 19.4729 5.8159 ZM 21.5685 9.1504 C 21.5677 7.9478 20.6313 6.9707 19.4813 6.9707 C 18.3181 6.9707 17.3712 7.9429 17.3662 9.1416 C 17.3621 10.3359 18.314 11.3291 19.4663 11.3325 C 20.6206 11.3369 21.569 10.3511 21.5685 9.1504 Z" fill="#ffffff"/>
			<path d="M 6.4407 5.8159 C 8.2163 5.814 9.6573 7.3032 9.6528 9.146 C 9.6478 11.0117 8.2319 12.4102 6.5925 12.4878 C 4.7216 12.5767 3.2118 11.0278 3.2155 9.1475 C 3.219 7.2417 4.7311 5.7842 6.4407 5.8159 ZM 8.5339 9.1431 C 8.5303 7.9331 7.5883 6.9688 6.412 6.9707 C 5.2773 6.9727 4.3268 7.9673 4.3293 9.1504 C 4.3322 10.3467 5.2819 11.3301 6.4375 11.3335 C 7.5858 11.3359 8.5367 10.3428 8.5339 9.1431 Z" fill="#ffffff"/>
			<path d="M 19.4745 8.0435 C 20.0634 8.043 20.5461 8.5449 20.5404 9.1523 C 20.5348 9.7617 20.0599 10.2559 19.4812 10.2559 C 18.8848 10.2559 18.4056 9.7666 18.407 9.1602 C 18.408 8.5313 18.8735 8.0439 19.4745 8.0435 Z" fill="#ffffff"/>
			<path d="M 6.4353 8.0337 C 7.0328 8.0332 7.5133 8.5288 7.5156 9.1479 C 7.5179 9.7617 7.0331 10.2651 6.4384 10.2666 C 5.8293 10.2681 5.3594 9.7793 5.36 9.1436 C 5.36 8.5195 5.8289 8.0347 6.4353 8.0337 Z" fill="#ffffff"/>
		</g>
	</g>
</svg>