<?xml version="1.0" standalone="no"?>
<!-- Generator: Adobe Fireworks 10, Export SVG Extension by Aaron Beall (http://fireworks.abeall.com) . Version: 0.6.1  -->
<!DOCTYPE svg PUBLIC "-//W3C//DTD SVG 1.1//EN" "http://www.w3.org/Graphics/SVG/1.1/DTD/svg11.dtd">
<svg id="Untitled-Page%201" viewBox="0 0 48 48" style="background-color:#ffffff00" version="1.1"
	xmlns="http://www.w3.org/2000/svg" xmlns:xlink="http://www.w3.org/1999/xlink" xml:space="preserve"
	x="0px" y="0px" width="48px" height="48px"
>
	<defs>
		<linearGradient id="gradient1" x1="50%" y1="0%" x2="87.5%" y2="83.3333%">
			<stop stop-color="#db2f7d" stop-opacity="1" offset="0%"/>
			<stop stop-color="#fa8d2c" stop-opacity="1" offset="100%"/>
		</linearGradient>
	</defs>
	<path id="Elipse" d="M 0 24 C 0 10.7451 10.745 0 24 0 C 37.255 0 48 10.7451 48 24 C 48 37.2549 37.255 48 24 48 C 10.745 48 0 37.2549 0 24 Z" fill="url(#gradient1)"/>
	<g>
		<path d="M 28.446 13 L 19.554 13 C 15.9401 13 13 15.9399 13 19.5537 L 13 28.4463 C 13 32.0601 15.9401 35 19.554 35 L 28.446 35 C 32.0598 35 35 32.0601 35 28.4463 L 35 19.5537 C 35 15.9399 32.0598 13 28.446 13 ZM 32.7866 28.4463 C 32.7866 30.8433 30.8433 32.7871 28.446 32.7871 L 19.554 32.7871 C 17.1567 32.7871 15.2133 30.8433 15.2133 28.4463 L 15.2133 19.5537 C 15.2133 17.1567 17.1567 15.2129 19.554 15.2129 L 28.446 15.2129 C 30.8433 15.2129 32.7866 17.1567 32.7866 19.5537 L 32.7866 28.4463 L 32.7866 28.4463 Z" fill="#ffffff"/>
		<path d="M 24 18.1152 C 20.8624 18.1152 18.3099 20.6685 18.3099 23.8062 C 18.3099 26.9434 20.8624 29.4961 24 29.4961 C 27.1373 29.4961 29.6899 26.9434 29.6899 23.8062 C 29.6899 20.6685 27.1373 18.1152 24 18.1152 ZM 24 27.2827 C 22.0798 27.2827 20.5232 25.7261 20.5232 23.8062 C 20.5232 21.8853 22.0798 20.3296 24 20.3296 C 25.9202 20.3296 27.4767 21.8853 27.4767 23.8062 C 27.4767 25.7261 25.9202 27.2827 24 27.2827 Z" fill="#ffffff"/>
		<path d="M 29.7008 16.7954 C 30.4539 16.7954 31.0642 17.4058 31.0642 18.1582 C 31.0642 18.9121 30.4539 19.522 29.7008 19.522 C 28.9478 19.522 28.3375 18.9121 28.3375 18.1582 C 28.3375 17.4058 28.9478 16.7954 29.7008 16.7954 Z" fill="#ffffff"/>
	</g>
</svg>