<?xml version="1.0" standalone="no"?>
<!-- Generator: Adobe Fireworks 10, Export SVG Extension by Aaron Beall (http://fireworks.abeall.com) . Version: 0.6.1  -->
<!DOCTYPE svg PUBLIC "-//W3C//DTD SVG 1.1//EN" "http://www.w3.org/Graphics/SVG/1.1/DTD/svg11.dtd">
<svg id="Untitled-Page%201" viewBox="0 0 49 49" style="background-color:#ffffff00" version="1.1"
	xmlns="http://www.w3.org/2000/svg" xmlns:xlink="http://www.w3.org/1999/xlink" xml:space="preserve"
	x="0px" y="0px" width="49px" height="49px"
>
	<g>
		<g>
			<path d="M 33.6232 34.0073 L 30.9565 29.2949 C 30.4248 28.3594 29.2277 28.0605 28.2888 28.6309 L 25.9939 30.0244 C 25.8958 29.9277 25.7941 29.8271 25.6873 29.7207 C 24.7049 28.752 23.3607 27.4248 22.1388 25.2646 C 20.9132 23.0986 20.4514 21.2324 20.1137 19.8701 C 20.0778 19.7256 20.0439 19.5869 20.0097 19.4546 L 21.5494 18.5205 L 22.3069 18.0605 C 23.2474 17.4888 23.5795 16.2617 23.0492 15.3242 L 20.3824 10.6113 C 19.8525 9.6748 18.6552 9.376 17.7146 9.9473 L 16.4293 10.7324 L 16.4501 10.769 C 15.9951 11.1279 15.5782 11.5713 15.2249 12.0747 C 14.8944 12.5557 14.6438 13.0322 14.4592 13.5273 C 12.9489 17.4922 13.8107 21.7197 17.431 28.1182 C 22.4359 36.96 28.0309 37.9023 28.2728 37.9395 C 28.8024 38.0146 29.3259 38.0195 29.8766 37.9541 C 30.4684 37.8818 31.0447 37.7217 31.5686 37.4863 L 31.5858 37.5127 L 32.8809 36.7451 C 33.8197 36.1738 34.1527 34.9468 33.6232 34.0073 ZM 32.2886 35.6973 L 31.7156 36.0449 L 31.489 36.1763 C 31.1321 36.3848 30.5378 36.6523 29.7438 36.75 C 29.2936 36.8027 28.864 36.7988 28.441 36.7393 C 28.3881 36.7305 23.137 35.7998 18.4418 27.5039 C 14.4498 20.4502 14.3978 16.9922 15.5497 13.9663 C 15.6997 13.5645 15.9053 13.1748 16.1755 12.7827 C 16.649 12.1094 17.1646 11.7031 17.5126 11.4814 L 18.3067 10.9932 C 18.6888 10.7607 19.1671 10.8638 19.3715 11.2256 L 22.0383 15.9375 C 22.2424 16.2988 22.0969 16.7817 21.7142 17.0156 L 18.6384 18.8809 L 18.7644 19.334 C 18.8345 19.5859 18.9047 19.8672 18.9789 20.1709 C 19.3335 21.6045 19.8182 23.5669 21.1277 25.8779 C 22.4331 28.1865 23.8469 29.5811 24.8782 30.5996 C 25.1011 30.8184 25.3044 31.0205 25.4847 31.209 L 25.8055 31.5449 L 28.8799 29.6777 C 29.2631 29.4453 29.7428 29.5503 29.9473 29.9102 L 32.6128 34.6216 C 32.8165 34.9824 32.6713 35.4658 32.2886 35.6973 Z" fill="#2c3a96"/>
		</g>
		<path d="M 24.5 0 C 10.9691 0 0 10.9692 0 24.5 C 0 38.0308 10.9691 49 24.5 49 C 38.0309 49 49 38.0308 49 24.5 C 48.9847 10.9756 38.0244 0.0151 24.5 0 ZM 24.5 47.3667 C 11.8711 47.3667 1.6333 37.1289 1.6333 24.5 C 1.6333 11.8711 11.8711 1.6333 24.5 1.6333 C 37.1289 1.6333 47.3667 11.8711 47.3667 24.5 C 47.3524 37.123 37.1228 47.3525 24.5 47.3667 Z" fill="#293895"/>
	</g>
</svg>