<?xml version="1.0" standalone="no"?>
<!-- Generator: Adobe Fireworks 10, Export SVG Extension by Aaron Beall (http://fireworks.abeall.com) . Version: 0.6.1  -->
<!DOCTYPE svg PUBLIC "-//W3C//DTD SVG 1.1//EN" "http://www.w3.org/Graphics/SVG/1.1/DTD/svg11.dtd">
<svg id="Untitled-P%E1gina%201" viewBox="0 0 31 31" style="background-color:#ffffff00" version="1.1"
	xmlns="http://www.w3.org/2000/svg" xmlns:xlink="http://www.w3.org/1999/xlink" xml:space="preserve"
	x="0px" y="0px" width="31px" height="31px"
>
	<g id="4430">
		<path d="M 29.0625 28.4163 C 29.0625 28.7729 28.7728 29.0625 28.4172 29.0625 L 2.5836 29.0625 C 2.2273 29.0625 1.9375 28.7729 1.9375 28.4163 L 1.9375 5.489 C 1.9375 5.1333 2.2273 4.8438 2.5836 4.8438 L 6.7813 4.8438 L 6.7813 6.7813 C 6.7813 7.3167 7.2152 7.75 7.75 7.75 C 8.2848 7.75 8.7188 7.3167 8.7188 6.7813 L 8.7188 4.8438 L 14.5313 4.8438 L 14.5313 6.7813 C 14.5313 7.3167 14.9652 7.75 15.5 7.75 C 16.0348 7.75 16.4688 7.3167 16.4688 6.7813 L 16.4688 4.8438 L 22.2813 4.8438 L 22.2813 6.7813 C 22.2813 7.3167 22.7142 7.75 23.25 7.75 C 23.7858 7.75 24.2188 7.3167 24.2188 6.7813 L 24.2188 4.8438 L 28.4172 4.8438 C 28.7728 4.8438 29.0625 5.1333 29.0625 5.489 L 29.0625 28.4163 L 29.0625 28.4163 ZM 28.4172 2.9063 L 24.2188 2.9063 L 24.2188 0.9688 C 24.2188 0.4333 23.7858 0 23.25 0 C 22.7142 0 22.2813 0.4333 22.2813 0.9688 L 22.2813 2.9063 L 16.4688 2.9063 L 16.4688 0.9688 C 16.4688 0.4333 16.0348 0 15.5 0 C 14.9652 0 14.5313 0.4333 14.5313 0.9688 L 14.5313 2.9063 L 8.7188 2.9063 L 8.7188 0.9688 C 8.7188 0.4333 8.2848 0 7.75 0 C 7.2152 0 6.7813 0.4333 6.7813 0.9688 L 6.7813 2.9063 L 2.5836 2.9063 C 1.1566 2.9063 0 4.0623 0 5.489 L 0 28.4163 C 0 29.8433 1.1566 31 2.5836 31 L 28.4172 31 C 29.8441 31 31 29.8433 31 28.4163 L 31 5.489 C 31 4.0623 29.8441 2.9063 28.4172 2.9063 L 28.4172 2.9063 Z" fill="#0a223a"/>
		<rect x="6.4888" y="11.72" width="3.875" height="2.9063" fill="#0a223a"/>
		<rect x="6.4888" y="16.5637" width="3.875" height="2.9063" fill="#0a223a"/>
		<rect x="6.4888" y="21.4075" width="3.875" height="2.9063" fill="#0a223a"/>
		<rect x="13.27" y="21.4075" width="3.875" height="2.9063" fill="#0a223a"/>
		<rect x="13.27" y="16.5637" width="3.875" height="2.9063" fill="#0a223a"/>
		<rect x="13.27" y="11.72" width="3.875" height="2.9063" fill="#0a223a"/>
		<rect x="20.0513" y="21.4075" width="3.875" height="2.9063" fill="#0a223a"/>
		<rect x="20.0513" y="16.5637" width="3.875" height="2.9063" fill="#0a223a"/>
		<rect x="20.0513" y="11.72" width="3.875" height="2.9063" fill="#0a223a"/>
	</g>
</svg>