<?xml version="1.0" standalone="no"?>
<!-- Generator: Adobe Fireworks 10, Export SVG Extension by Aaron Beall (http://fireworks.abeall.com) . Version: 0.6.1  -->
<!DOCTYPE svg PUBLIC "-//W3C//DTD SVG 1.1//EN" "http://www.w3.org/Graphics/SVG/1.1/DTD/svg11.dtd">
<svg id="Untitled-P%E1gina%201" viewBox="0 0 12 17" style="background-color:#ffffff00" version="1.1"
	xmlns="http://www.w3.org/2000/svg" xmlns:xlink="http://www.w3.org/1999/xlink" xml:space="preserve"
	x="0px" y="0px" width="12px" height="17px"
>
	<path id="9243" d="M 12.2876 14.5493 C 12.23 14.7944 12.0801 14.9785 11.8381 15.1006 L 8.9907 16.5283 C 8.8574 16.6035 8.7014 16.6553 8.5229 16.6831 C 8.344 16.7109 8.1777 16.7134 8.0239 16.6909 C 8.0137 16.6875 7.9814 16.6812 7.9272 16.6709 C 7.8733 16.6606 7.8047 16.6431 7.7212 16.6182 C 7.5232 16.5596 7.2158 16.4312 6.7993 16.2324 C 6.3833 16.0342 5.9063 15.7085 5.3694 15.2559 C 4.833 14.8042 4.2634 14.1968 3.6611 13.4346 C 3.0605 12.6748 2.4866 11.7085 1.9404 10.5381 C 1.5005 9.6284 1.1729 8.7886 0.957 8.0176 C 0.7415 7.2485 0.5996 6.5566 0.5303 5.9404 C 0.4614 5.3257 0.4438 4.7827 0.4771 4.3115 C 0.5103 3.8408 0.5649 3.4434 0.6411 3.1191 C 0.7168 2.7954 0.7959 2.5469 0.8787 2.374 C 0.9609 2.2007 1.0059 2.1045 1.0139 2.085 C 1.0903 1.9541 1.1929 1.8281 1.3218 1.7075 C 1.4502 1.5869 1.583 1.4971 1.7202 1.4395 L 4.521 0.0908 C 4.7168 -0.0039 4.9053 -0.0244 5.0869 0.0283 C 5.218 0.0669 5.3191 0.1367 5.3906 0.2393 C 5.4624 0.3413 5.5122 0.4561 5.54 0.583 L 5.9766 4.0332 C 6.0054 4.2173 5.9624 4.397 5.8472 4.5723 C 5.7319 4.748 5.5825 4.8804 5.3994 4.9697 L 4.3608 5.4771 C 4.3325 5.4912 4.3018 5.5176 4.269 5.5576 C 4.2356 5.5981 4.2134 5.6328 4.2012 5.6626 C 4.1587 5.8828 4.1553 6.1479 4.1909 6.458 C 4.2183 6.7329 4.291 7.0801 4.4097 7.4995 C 4.5283 7.9194 4.7339 8.4248 5.0269 9.0151 C 5.3064 9.6143 5.5757 10.0957 5.8345 10.459 C 6.0938 10.8232 6.3208 11.1021 6.5156 11.2949 C 6.7104 11.4883 6.8674 11.6167 6.9863 11.6797 L 7.165 11.7754 C 7.1855 11.7813 7.2222 11.7837 7.2744 11.7822 C 7.3267 11.7803 7.3672 11.7725 7.3955 11.7583 L 8.6187 11.1367 C 8.8667 11.0293 9.1138 11.0122 9.3613 11.085 C 9.5366 11.1367 9.6641 11.208 9.7437 11.2993 L 9.759 11.3037 L 12.0894 13.9272 C 12.2568 14.125 12.3232 14.332 12.2876 14.5493 L 12.2876 14.5493 Z" fill="#ffffff"/>
</svg>