<?xml version="1.0" standalone="no"?>
<!-- Generator: Adobe Fireworks 10, Export SVG Extension by Aaron Beall (http://fireworks.abeall.com) . Version: 0.6.1  -->
<!DOCTYPE svg PUBLIC "-//W3C//DTD SVG 1.1//EN" "http://www.w3.org/Graphics/SVG/1.1/DTD/svg11.dtd">
<svg id="Untitled-Page%201" viewBox="0 0 20 20" style="background-color:#ffffff00" version="1.1"
	xmlns="http://www.w3.org/2000/svg" xmlns:xlink="http://www.w3.org/1999/xlink" xml:space="preserve"
	x="0px" y="0px" width="20px" height="20px"
>
	<g>
		<path d="M 17.083 17.3911 C 17.0146 17.3911 16.9465 17.3789 16.8813 17.3569 L 0.4233 11.4868 C 0.1868 11.4019 0.0217 11.1797 0.0017 10.9194 C -0.0166 10.6597 0.1143 10.4121 0.335 10.2915 L 19.0847 0.0742 C 19.2939 -0.0376 19.5464 -0.02 19.7363 0.1211 C 19.928 0.2637 20.0273 0.5059 19.9932 0.7495 L 17.7014 16.8359 C 17.6738 17.0269 17.5664 17.1958 17.4072 17.2969 C 17.3088 17.3589 17.1965 17.3911 17.083 17.3911 L 17.083 17.3911 ZM 2.2051 10.7437 L 16.5747 15.8691 L 18.5754 1.8237 L 2.2051 10.7437 Z" fill="#ffffff"/>
		<path d="M 7.9165 20 C 7.8516 20 7.7856 19.9897 7.7224 19.9683 C 7.4648 19.8789 7.2915 19.6294 7.2915 19.3477 L 7.2915 13.4785 C 7.2915 13.314 7.3516 13.1543 7.459 13.0332 L 18.9172 0.2075 C 19.1521 -0.0566 19.5498 -0.0698 19.8015 0.1753 C 20.054 0.4204 20.0671 0.8335 19.8323 1.0977 L 8.5415 13.7349 L 8.5415 17.3589 L 10.6274 14.3965 C 10.8315 14.1079 11.2231 14.0435 11.5015 14.2573 C 11.7798 14.4707 11.8391 14.8794 11.6348 15.1699 L 8.4207 19.7349 C 8.2998 19.9043 8.1116 20 7.9165 20 L 7.9165 20 Z" fill="#ffffff"/>
	</g>
</svg>