<?xml version="1.0" standalone="no"?>
<!-- Generator: Adobe Fireworks 10, Export SVG Extension by Aaron Beall (http://fireworks.abeall.com) . Version: 0.6.1  -->
<!DOCTYPE svg PUBLIC "-//W3C//DTD SVG 1.1//EN" "http://www.w3.org/Graphics/SVG/1.1/DTD/svg11.dtd">
<svg id="Untitled-Page%201" viewBox="0 0 49 49" style="background-color:#ffffff00" version="1.1"
	xmlns="http://www.w3.org/2000/svg" xmlns:xlink="http://www.w3.org/1999/xlink" xml:space="preserve"
	x="0px" y="0px" width="49px" height="49px"
>
	<g id="Layer%201">
		<g>
			<g>
				<path d="M 24.0625 9 C 18.5141 9 14 13.7197 14 19.5205 C 14 21.8521 15.3127 25.397 18.1312 30.6777 C 20.0544 34.2813 21.9688 37.3247 22.0495 37.4526 L 23.4332 39.6455 C 23.5727 39.8667 23.809 40 24.0625 40 C 24.316 40 24.5523 39.8667 24.6918 39.6455 L 26.0755 37.4526 C 26.1555 37.3262 28.0558 34.3096 29.9938 30.6777 C 32.8124 25.3975 34.125 21.8525 34.125 19.5205 C 34.125 13.7197 29.6109 9 24.0625 9 ZM 28.6772 29.9092 C 26.7661 33.4902 24.8958 36.46 24.8169 36.585 L 24.0625 37.7803 L 23.3083 36.585 C 23.2292 36.459 21.3442 33.4629 19.4477 29.9092 C 16.8335 25.0112 15.5079 21.5156 15.5079 19.5205 C 15.5079 14.5889 19.3454 10.5771 24.0625 10.5771 C 28.7796 10.5771 32.6171 14.5889 32.6171 19.5205 C 32.6171 21.5166 31.2915 25.0117 28.6772 29.9092 Z" fill="#293895"/>
				<path d="M 24.0625 13.6221 C 20.9862 13.6221 18.4834 16.2388 18.4834 19.4551 C 18.4834 22.6714 20.9862 25.2881 24.0625 25.2881 C 27.1388 25.2881 29.6416 22.6714 29.6416 19.4551 C 29.6416 16.2388 27.1388 13.6221 24.0625 13.6221 ZM 24.0625 23.7119 C 21.8175 23.7119 19.9913 21.8022 19.9913 19.4551 C 19.9913 17.1084 21.8175 15.1982 24.0625 15.1982 C 26.3075 15.1982 28.1337 17.1084 28.1337 19.4551 C 28.1337 21.8022 26.3075 23.7119 24.0625 23.7119 Z" fill="#293895"/>
			</g>
			<path d="M 24.5 0 C 10.9691 0 0 10.9692 0 24.5 C 0 38.0308 10.9691 49 24.5 49 C 38.0309 49 49 38.0308 49 24.5 C 48.9847 10.9756 38.0244 0.0151 24.5 0 ZM 24.5 47.3667 C 11.8711 47.3667 1.6333 37.1289 1.6333 24.5 C 1.6333 11.8711 11.8711 1.6333 24.5 1.6333 C 37.1289 1.6333 47.3667 11.8711 47.3667 24.5 C 47.3524 37.123 37.1228 47.3525 24.5 47.3667 Z" fill="#293895"/>
		</g>
	</g>
</svg>