<?xml version="1.0" standalone="no"?>
<!-- Generator: Adobe Fireworks 10, Export SVG Extension by Aaron Beall (http://fireworks.abeall.com) . Version: 0.6.1  -->
<!DOCTYPE svg PUBLIC "-//W3C//DTD SVG 1.1//EN" "http://www.w3.org/Graphics/SVG/1.1/DTD/svg11.dtd">
<svg id="Untitled-P%E1gina%201" viewBox="0 0 14 19" style="background-color:#ffffff00" version="1.1"
	xmlns="http://www.w3.org/2000/svg" xmlns:xlink="http://www.w3.org/1999/xlink" xml:space="preserve"
	x="0px" y="0px" width="14px" height="19px"
>
	<g>
		<path d="M 7.0007 19 L 12.6011 11.3115 C 14.7015 8.6499 14.3979 4.2749 11.9509 1.9492 C 10.6287 0.6924 8.8706 0 7.0007 0 C 5.1309 0 3.3728 0.6924 2.0505 1.9492 C -0.3965 4.2744 -0.7002 8.6499 1.392 11.3008 L 7.0007 19 ZM 7.0653 4.1641 C 8.4745 4.1641 9.6207 5.2534 9.6207 6.5928 C 9.6207 7.9316 8.4745 9.0215 7.0653 9.0215 C 5.6563 9.0215 4.5099 7.9316 4.5099 6.5928 C 4.5099 5.2534 5.6563 4.1641 7.0653 4.1641 Z" fill="#b3cb41"/>
	</g>
</svg>