<?xml version="1.0" standalone="no"?>
<!-- Generator: Adobe Fireworks 10, Export SVG Extension by Aaron Beall (http://fireworks.abeall.com) . Version: 0.6.1  -->
<!DOCTYPE svg PUBLIC "-//W3C//DTD SVG 1.1//EN" "http://www.w3.org/Graphics/SVG/1.1/DTD/svg11.dtd">
<svg id="Untitled-P%E1gina%201" viewBox="0 0 26 25" style="background-color:#ffffff00" version="1.1"
	xmlns="http://www.w3.org/2000/svg" xmlns:xlink="http://www.w3.org/1999/xlink" xml:space="preserve"
	x="0px" y="0px" width="26px" height="25px"
>
	<g>
		<g>
			<path d="M 23.8117 10.3862 C 23.2316 10.3862 22.7614 10.859 22.7614 11.4423 L 22.7614 12.5059 C 22.7599 15.2806 21.6838 17.8887 19.7315 19.8495 C 17.7807 21.8088 15.1883 22.8877 12.4312 22.8877 C 12.4291 22.8877 12.4271 22.8877 12.4251 22.8877 C 6.7288 22.8845 2.0973 18.2219 2.1005 12.4941 C 2.1021 9.7194 3.1782 7.1113 5.1305 5.1504 C 7.0814 3.191 9.6738 2.1122 12.4308 2.1122 C 12.4329 2.1122 12.4349 2.1122 12.437 2.1122 C 13.893 2.1129 15.3056 2.4156 16.6356 3.0115 C 17.1655 3.2489 17.7862 3.0093 18.0223 2.4767 C 18.2584 1.9438 18.0203 1.3196 17.4904 1.0822 C 15.89 0.3651 14.1902 0.001 12.4381 0 C 12.4355 0 12.4334 0 12.4308 0 C 9.1133 0 5.9934 1.2985 3.646 3.6563 C 1.2968 6.0156 0.0019 9.1539 0 12.4929 C -0.0019 15.8317 1.2893 18.9714 3.6359 21.3337 C 5.9825 23.696 9.1034 24.998 12.4238 25 C 12.4264 25 12.4285 25 12.4312 25 C 15.7486 25 18.8686 23.7017 21.216 21.3439 C 23.5652 18.9844 24.86 15.8461 24.8619 12.5066 L 24.8619 11.4424 C 24.8619 10.859 24.3918 10.3862 23.8117 10.3862 Z" fill="#97c659"/>
		</g>
		<g>
			<path d="M 25.6924 1.4602 C 25.2823 1.0479 24.6172 1.0479 24.2071 1.4602 L 12.4309 13.3016 L 9.7594 10.6154 C 9.3493 10.203 8.6842 10.203 8.2742 10.6154 C 7.864 11.0277 7.864 11.6964 8.2742 12.1089 L 11.6884 15.542 C 11.8935 15.7484 12.1623 15.8514 12.4311 15.8514 C 12.6998 15.8514 12.9686 15.7484 13.1737 15.542 L 25.6924 2.9539 C 26.1025 2.5414 26.1025 1.8727 25.6924 1.4602 Z" fill="#97c659"/>
		</g>
	</g>
</svg>