<?xml version="1.0" standalone="no"?>
<!-- Generator: Adobe Fireworks 10, Export SVG Extension by Aaron Beall (http://fireworks.abeall.com) . Version: 0.6.1  -->
<!DOCTYPE svg PUBLIC "-//W3C//DTD SVG 1.1//EN" "http://www.w3.org/Graphics/SVG/1.1/DTD/svg11.dtd">
<svg id="Untitled-P%E1gina%201" viewBox="0 0 17 12" style="background-color:#ffffff00" version="1.1"
	xmlns="http://www.w3.org/2000/svg" xmlns:xlink="http://www.w3.org/1999/xlink" xml:space="preserve"
	x="0px" y="0px" width="17px" height="12px"
>
	<path d="M 11.4475 0.1807 C 11.2159 -0.0601 10.8306 -0.0601 10.5908 0.1807 C 10.3594 0.4131 10.3594 0.7998 10.5908 1.0322 L 14.9351 5.3931 L 0.5996 5.3931 C 0.2656 5.3936 0 5.6602 0 5.9956 C 0 6.3311 0.2656 6.6064 0.5996 6.6064 L 14.9351 6.6064 L 10.5908 10.9595 C 10.3594 11.2002 10.3594 11.5874 10.5908 11.8193 C 10.8306 12.0601 11.2166 12.0601 11.4475 11.8193 L 16.8202 6.4258 C 17.0599 6.1934 17.0599 5.8066 16.8202 5.5742 L 11.4475 0.1807 Z" fill="#ffffff"/>
</svg>