<?xml version="1.0" standalone="no"?>
<!-- Generator: Adobe Fireworks 10, Export SVG Extension by Aaron Beall (http://fireworks.abeall.com) . Version: 0.6.1  -->
<!DOCTYPE svg PUBLIC "-//W3C//DTD SVG 1.1//EN" "http://www.w3.org/Graphics/SVG/1.1/DTD/svg11.dtd">
<svg id="Untitled-Page%201" viewBox="0 0 23 13" style="background-color:#ffffff00" version="1.1"
	xmlns="http://www.w3.org/2000/svg" xmlns:xlink="http://www.w3.org/1999/xlink" xml:space="preserve"
	x="0px" y="0px" width="23px" height="13px"
>
	<g id="Layer%202">
		<path d="M 16.2563 11.8213 C 15.9591 11.5212 15.9591 11.0371 16.2563 10.7368 L 19.7815 7.2068 L 1.734 7.2068 C 1.3109 7.2068 0.9677 6.8625 0.9677 6.438 C 0.9677 6.0132 1.3109 5.6689 1.734 5.6689 L 19.7584 5.6689 L 16.2563 2.1543 C 15.9536 1.8525 15.9519 1.3618 16.2524 1.0581 C 16.5529 0.7544 17.0419 0.7524 17.3445 1.0544 L 22.2184 5.9534 C 22.4863 6.2236 22.4863 6.6597 22.2184 6.9299 L 17.3445 11.8213 C 17.0465 12.1226 16.5613 12.125 16.2607 11.8257 C 16.2593 11.8242 16.2576 11.8228 16.2563 11.8213 Z" fill="#333333"/>
	</g>
</svg>