<?xml version="1.0" standalone="no"?>
<!-- Generator: Adobe Fireworks 10, Export SVG Extension by Aaron Beall (http://fireworks.abeall.com) . Version: 0.6.1  -->
<!DOCTYPE svg PUBLIC "-//W3C//DTD SVG 1.1//EN" "http://www.w3.org/Graphics/SVG/1.1/DTD/svg11.dtd">
<svg id="Untitled-Page%201" viewBox="0 0 63 63" style="background-color:#ffffff00" version="1.1"
	xmlns="http://www.w3.org/2000/svg" xmlns:xlink="http://www.w3.org/1999/xlink" xml:space="preserve"
	x="0px" y="0px" width="63px" height="63px"
>
	<g id="9035542_restaurant_outline_icon">
		<path d="M 5.356 4.073 L 53.8777 52.5947 C 55.7949 54.5122 55.7949 57.6206 53.8777 59.5381 L 53.8777 59.5381 C 51.9601 61.4543 48.8522 61.4543 46.9346 59.5381 L 35.0817 47.481 C 34.3059 46.6934 33.8708 45.6323 33.87 44.5269 L 33.87 43.7986 C 33.8702 42.6711 33.4187 41.5906 32.6162 40.7986 L 31.0859 39.3855 C 30.0302 38.4111 28.551 38.042 27.1613 38.4055 L 27.1613 38.4055 C 24.967 38.9783 22.6335 38.3452 21.0293 36.7422 L 9.7783 25.4897 C 3.1039 18.8154 0.6476 8.7366 5.356 4.073 L 5.356 4.073 Z" stroke="#333333" stroke-width="3" fill="none"/>
		<path d="M 50.4641 2 L 40.2903 12.1738 C 38.7092 13.7544 37.8209 15.8987 37.8209 18.1345 L 37.8209 20.0916 C 37.8212 20.6506 37.5989 21.187 37.2034 21.5823 L 35.7137 23.0718 " stroke="#333333" stroke-width="3" fill="none"/>
		<path d="M 39.9281 27.2861 L 41.4176 25.7966 C 41.813 25.4011 42.3494 25.179 42.9084 25.179 L 44.8656 25.179 C 47.1013 25.179 49.2455 24.2908 50.8263 22.7097 L 61 12.5359 " stroke="#333333" stroke-width="3" fill="none"/>
		<path d="M 55.7321 7.2681 L 45.1962 17.804 " stroke="#333333" stroke-width="3" fill="none"/>
		<path d="M 24.1244 46.251 L 10.9912 59.4575 C 8.9341 61.5142 5.5995 61.5142 3.5424 59.4575 L 3.5424 59.4575 C 1.4858 57.4004 1.4858 54.0659 3.5424 52.0088 L 14.642 40.9829 " stroke="#333333" stroke-width="3" fill="none"/>
	</g>
</svg>