<?xml version="1.0" standalone="no"?>
<!-- Generator: Adobe Fireworks 10, Export SVG Extension by Aaron Beall (http://fireworks.abeall.com) . Version: 0.6.1  -->
<!DOCTYPE svg PUBLIC "-//W3C//DTD SVG 1.1//EN" "http://www.w3.org/Graphics/SVG/1.1/DTD/svg11.dtd">
<svg id="Untitled-Page%201" viewBox="0 0 49 49" style="background-color:#ffffff00" version="1.1"
	xmlns="http://www.w3.org/2000/svg" xmlns:xlink="http://www.w3.org/1999/xlink" xml:space="preserve"
	x="0px" y="0px" width="49px" height="49px"
>
	<g id="Layer%201">
		<g>
			<g>
				<path d="M 38 16.4009 L 38 16.293 C 38 15.8916 37.822 15.4194 37.5023 15.0928 L 37.4662 15.0557 C 37.4662 15.0557 37.4298 15.0557 37.4298 15.0186 C 37.3574 14.9443 37.2882 14.9102 37.2157 14.8359 C 37.1794 14.8359 37.1794 14.7988 37.1432 14.7988 C 37.0708 14.7622 36.9652 14.7246 36.8927 14.6914 C 36.8564 14.6914 36.8564 14.6543 36.8202 14.6543 C 36.7148 14.6172 36.6061 14.5801 36.5006 14.5801 C 36.4642 14.5801 36.4642 14.5801 36.4281 14.5801 C 36.3226 14.5801 36.1776 14.543 36.0359 14.543 L 12.7996 14.543 C 12.6578 14.543 12.5161 14.543 12.3712 14.5801 C 12.335 14.5801 12.2986 14.5801 12.2656 14.6172 C 12.1602 14.6543 12.0514 14.6543 11.9822 14.6914 C 11.946 14.6914 11.946 14.7285 11.9098 14.7285 C 11.8373 14.7651 11.7318 14.8022 11.6593 14.8359 L 11.623 14.873 C 11.5505 14.9102 11.4812 14.9814 11.4088 15.0186 C 11.3726 15.0557 11.3363 15.0928 11.3033 15.126 C 11.053 15.4165 10.9114 15.7471 10.875 16.1113 C 10.875 16.1484 10.875 16.1484 10.875 16.1851 L 10.875 32.3896 C 10.875 32.4268 10.875 32.4268 10.875 32.4639 C 10.9475 32.9736 11.1946 33.4111 11.5505 33.6641 C 11.8702 33.8838 12.2623 34.0283 12.7238 34.0283 L 36.1084 34.0283 C 36.1084 34.0283 36.1084 34.0283 36.1445 34.0283 L 36.1445 34.0283 C 36.2501 34.0283 36.395 34.0283 36.5006 33.9912 C 36.5367 33.9912 36.5367 33.9912 36.573 33.9912 C 36.6785 33.9541 36.7872 33.9541 36.8564 33.917 L 36.8927 33.917 C 37.677 33.627 37.9966 32.9326 37.9966 32.2788 L 37.9966 32.1709 L 37.9966 32.1338 L 37.9966 32.0962 L 37.9966 16.5088 C 37.9966 16.4717 37.9966 16.4717 37.9966 16.4346 C 38 16.438 38 16.438 38 16.4009 ZM 35.7228 15.8916 L 24.5116 27.0693 L 21.9478 24.52 L 21.9478 24.52 L 13.1554 15.8882 L 35.7228 15.8882 L 35.7228 15.8916 ZM 12.1965 31.9521 L 12.1965 16.8018 L 20.4878 24.959 L 12.1965 31.9521 ZM 24.1558 32.7139 L 13.3696 32.7139 L 21.4502 25.9395 L 24.047 28.5254 C 24.1525 28.6338 24.2612 28.6709 24.3666 28.708 L 24.4028 28.708 C 24.4392 28.708 24.4392 28.708 24.4753 28.708 L 24.4753 28.708 C 24.5116 28.708 24.548 28.708 24.548 28.708 L 24.5841 28.708 C 24.6896 28.6709 24.8346 28.6338 24.9038 28.5254 L 27.3589 26.085 L 35.4724 32.7139 L 24.1558 32.7139 L 24.1558 32.7139 ZM 36.6819 31.9854 L 28.3541 25.1035 L 36.6819 16.8018 L 36.6819 31.9854 Z" fill="#293895"/>
			</g>
			<path d="M 24.5 0 C 10.9691 0 0 10.9692 0 24.5 C 0 38.0308 10.9691 49 24.5 49 C 38.0309 49 49 38.0308 49 24.5 C 48.9847 10.9756 38.0244 0.0151 24.5 0 ZM 24.5 47.3667 C 11.8711 47.3667 1.6333 37.1289 1.6333 24.5 C 1.6333 11.8711 11.8711 1.6333 24.5 1.6333 C 37.1289 1.6333 47.3667 11.8711 47.3667 24.5 C 47.3524 37.123 37.1228 47.3525 24.5 47.3667 Z" fill="#293895"/>
		</g>
	</g>
</svg>