<?xml version="1.0" standalone="no"?>
<!-- Generator: Adobe Fireworks 10, Export SVG Extension by Aaron Beall (http://fireworks.abeall.com) . Version: 0.6.1  -->
<!DOCTYPE svg PUBLIC "-//W3C//DTD SVG 1.1//EN" "http://www.w3.org/Graphics/SVG/1.1/DTD/svg11.dtd">
<svg id="Untitled-Page%201" viewBox="0 0 26 19" style="background-color:#ffffff00" version="1.1"
	xmlns="http://www.w3.org/2000/svg" xmlns:xlink="http://www.w3.org/1999/xlink" xml:space="preserve"
	x="0px" y="0px" width="26px" height="19px"
>
	<g id="Layer%201">
		<path id="Forma%201" d="M 22.4812 0.3496 C 16.5607 -0.0596 9.5436 -0.1709 3.516 0.3496 C 1.6442 0.5659 0.3619 2.9082 0.2223 4.687 C -0.0741 8.4248 -0.0741 10.5508 0.2223 14.2886 C 0.3634 16.0684 1.6129 18.4229 3.517 18.6704 C 9.6162 19.0796 16.5991 19.1392 22.4829 18.6704 C 24.3264 18.3408 25.6372 16.0684 25.7783 14.2886 C 26.074 10.5508 26.074 8.1914 25.7783 4.4531 C 25.634 2.6748 24.6029 0.4307 22.4812 0.3496 ZM 9.7484 14.2275 L 9.7484 4.6475 L 17.8728 9.4375 L 9.7484 14.2275 Z" fill="#293895"/>
	</g>
</svg>