<?xml version="1.0" standalone="no"?>
<!-- Generator: Adobe Fireworks 10, Export SVG Extension by Aaron Beall (http://fireworks.abeall.com) . Version: 0.6.1  -->
<!DOCTYPE svg PUBLIC "-//W3C//DTD SVG 1.1//EN" "http://www.w3.org/Graphics/SVG/1.1/DTD/svg11.dtd">
<svg id="Untitled-P%E1gina%201" viewBox="0 0 44 44" style="background-color:#ffffff00" version="1.1"
	xmlns="http://www.w3.org/2000/svg" xmlns:xlink="http://www.w3.org/1999/xlink" xml:space="preserve"
	x="0px" y="0px" width="44px" height="44px"
>
	<g>
		<path d="M 30.892 0 L 13.108 0 C 5.8801 0 0 5.8792 0 13.1079 L 0 30.8921 C 0 38.1211 5.8801 44 13.108 44 L 30.892 44 C 38.1196 44 44 38.1211 44 30.8921 L 44 13.1079 C 44 5.8792 38.1196 0 30.892 0 ZM 39.5732 30.8921 C 39.5732 35.6865 35.6865 39.5742 30.892 39.5742 L 13.108 39.5742 C 8.3135 39.5742 4.4268 35.6865 4.4268 30.8921 L 4.4268 13.1079 C 4.4268 8.3132 8.3135 4.4258 13.108 4.4258 L 30.892 4.4258 C 35.6865 4.4258 39.5732 8.3132 39.5732 13.1079 L 39.5732 30.8921 L 39.5732 30.8921 Z" fill="#0a223a"/>
		<path d="M 22 10.2305 C 15.725 10.2305 10.6199 15.3374 10.6199 21.6121 C 10.6199 27.8867 15.725 32.9922 22 32.9922 C 28.2747 32.9922 33.3801 27.8867 33.3801 21.6121 C 33.3801 15.3374 28.2747 10.2305 22 10.2305 ZM 22 28.5654 C 18.1597 28.5654 15.0463 25.4526 15.0463 21.6121 C 15.0463 17.7715 18.1597 14.6599 22 14.6599 C 25.8403 14.6599 28.9534 17.7715 28.9534 21.6121 C 28.9534 25.4526 25.8403 28.5654 22 28.5654 Z" fill="#0a223a"/>
		<path d="M 33.4019 7.5903 C 34.9077 7.5903 36.1285 8.811 36.1285 10.3164 C 36.1285 11.824 34.9077 13.0449 33.4019 13.0449 C 31.8954 13.0449 30.6753 11.824 30.6753 10.3164 C 30.6753 8.811 31.8954 7.5903 33.4019 7.5903 Z" fill="#0a223a"/>
	</g>
</svg>